<svg xmlns="http://www.w3.org/2000/svg" xmlns:xlink="http://www.w3.org/1999/xlink" width="243" height="243" viewBox="0 0 243 243">
  <defs>
    <clipPath id="clip-path">
      <rect id="Rectangle_121" data-name="Rectangle 121" width="243" height="243" transform="translate(94 152)" fill="#fff" stroke="#707070" stroke-width="1"/>
    </clipPath>
  </defs>
  <g id="Mask_Group_8" data-name="Mask Group 8" transform="translate(-94 -152)" clip-path="url(#clip-path)">
    <g id="undraw_warning_re_eoyh" transform="translate(94 176.639)">
      <path id="Path_727" data-name="Path 727" d="M204.792,185.48a1.051,1.051,0,0,0,.761-1.822l-.072-.286.028-.069a2.691,2.691,0,0,1,3.507-1.442c4.314,1.784-.241,5.882.1,8.655.12.957,3.869,1.01,3.657,1.949a33.477,33.477,0,0,0,3.04-13.905,32.316,32.316,0,0,0-.2-3.6q-.167-1.472-.462-2.922a33.865,33.865,0,0,0-6.721-14.35c-1.6-.876-.626-2.246-1.434-3.888-.29-.592-2.88-.606-2.988-1.255.116.015,1.79-1.723,1.237-2.583a1.425,1.425,0,0,1,.217-1.769,1.489,1.489,0,0,0,.129-.151c1.381-1.873,3.284-1.547,4.278,1,2.123,1.07,2.144,2.847.842,4.556-.828,1.087-.941,2.558-1.668,3.722.075.1.153.188.227.284a34.083,34.083,0,0,1,3.559,5.635,14.169,14.169,0,0,1,.844-6.581,24.01,24.01,0,0,1,3.691-5.325,2.894,2.894,0,0,1,5.152,1.463l.008.074q-.3.168-.583.357a1.426,1.426,0,0,0,.576,2.594l.029,0c-.072.715-2.609,2.967-2.788,3.664,1.716,6.627.432,7.5-4.847,7.613l-.277.395a34.817,34.817,0,0,1,1.8,8.594,33,33,0,0,1-.022,5.328l.009-.063a8.719,8.719,0,0,1,2.975-5.036c2.29-1.882,5.526-2.576,8-4.09a1.636,1.636,0,0,1,2.507,1.591l-.01.066a9.576,9.576,0,0,0-1.074.518q-.3.168-.584.357a1.425,1.425,0,0,0,.577,2.594l.029,0,.06.009c-.631,1.5-6.639,3.613-7.74,4.813-1.07,5.788-.544,5.616-5.47,3.932h0a34.777,34.777,0,0,1-2.334,6.821l-8.346,0c-.03-.093-.057-.188-.084-.281a9.483,9.483,0,0,0,2.309-.138c-.619-.76-1.239-1.525-1.858-2.285a.521.521,0,0,1-.039-.045l-.009-.012-.859-2.829a14.254,14.254,0,0,1,.329-1.862h0Z" fill="#f2f2f2"/>
      <path id="Path_728" data-name="Path 728" d="M116.595,192.864l-73.852.026A10.241,10.241,0,0,1,33.849,177.5l36.9-67.179a10.263,10.263,0,0,1,17.776-.006l36.954,67.162a10.263,10.263,0,0,1-8.887,15.389h0ZM33.388,182.629c0,1.6,8.149-1.853,8.994-.391,1.689,2.923-3.015,9.727.361,9.726,0,0,80.25-1.773,81.936-4.7a9.241,9.241,0,0,0,0-9.337L87.721,110.768a9.238,9.238,0,0,0-8.083-4.657c-3.374,0-46.25,74.914-46.251,76.518h0Z" fill="#3f3d56"/>
      <path id="Path_729" data-name="Path 729" d="M117.415,191.937c-.926,1.853,42.431,1.283,42.943,1.283,0,0,12.186-.269,12.442-.713a1.4,1.4,0,0,0,0-1.418l-5.612-10.2a1.4,1.4,0,0,0-1.227-.707.177.177,0,0,0-.093.055c-7.486,6.69-16.712,11.112-26.75,11.261-10.674.159-21.644.32-21.7.437h0Z" fill="#3f3d56"/>
      <path id="Path_730" data-name="Path 730" d="M0,193.17a.55.55,0,0,0,.551.551l241.9-.084a.551.551,0,1,0,0-1.1l-241.9.084A.55.55,0,0,0,0,193.17Z" fill="#ccc"/>
      <g id="Group_121" data-name="Group 121">
        <path id="Path_731" data-name="Path 731" d="M187.055,190.5h-4.189l-2-16.157,6.183,0Z" fill="#a0616a"/>
        <path id="Path_732" data-name="Path 732" d="M172.7,190.405h0a3.6,3.6,0,0,0-.2,1.184h0a1.422,1.422,0,0,0,1.422,1.421l12.973,0a.97.97,0,0,0,.97-.97v-.54a4.147,4.147,0,0,0-.681-3.624s-1.642,1.567-4.1-.886l-.724-1.311-5.237,3.833-2.9.358c-.635.078-1.2-.012-1.525.539h0Z" fill="#2f2e41"/>
      </g>
      <g id="Group_122" data-name="Group 122">
        <path id="Path_733" data-name="Path 733" d="M170.993,176.676l-3.968,1.342-7.068-14.666,5.857-1.982Z" fill="#a0616a"/>
        <path id="Path_734" data-name="Path 734" d="M157.368,181.187h0a3.6,3.6,0,0,0,.191,1.186h0a1.422,1.422,0,0,0,1.8.891L171.65,179.1a.97.97,0,0,0,.608-1.23l-.173-.512a4.147,4.147,0,0,0-1.806-3.215s-1.053,2.01-4.164.473l-1.106-1.01-3.733,5.308-2.635,1.269c-.577.278-1.139.373-1.272,1h0Z" fill="#2f2e41"/>
      </g>
      <path id="Path_735" data-name="Path 735" d="M164.522,82.945,156.4,109.855l-9.592,24.2,15.186,34.567,5.631-2.505-6.737-31.753,14.129-21.547,6.593,67.264,5.631-.314,7.637-81.192L195.965,80.9Z" fill="#2f2e41"/>
      <path id="Path_736" data-name="Path 736" d="M189.062,23.336,177.174,25.53l-.937,5.319-7.195,3.444L165.3,73.4s-6.255,8.137-1.248,10.638l31.911-3.14s1.562-5.785,0-6.334S194.393,60.2,194.393,60.2l7.186-28.422-10.639-3.751-1.879-4.692Z" fill="#e6e6e6"/>
      <circle id="Ellipse_76" data-name="Ellipse 76" cx="9.6" cy="9.6" r="9.6" transform="translate(172.45 4.033)" fill="#a0616a"/>
      <path id="Path_737" data-name="Path 737" d="M188.407,15.058c-.766.419-.039,2.422-.518,2.595-.553.2-2.571-2.1-2.6-4.669a8.726,8.726,0,0,0,0-2.076c-.225-1.208-.917-2.632-1.558-2.594-.38.022-.75.559-.778,1.038-.039.671.613.936.519,1.3-.179.689-2.917,1.164-3.892,0-.764-.912-.178-2.512-.52-2.594-.252-.06-.522.821-1.556,1.817-.39.375-.969.933-1.3.779-.474-.223-.13-1.8-.26-1.816a12.817,12.817,0,0,1-.778,2.076c-.773,1.27-2.369,2.248-3.113,1.817-.456-.264-.492-1-.519-1.557-.058-1.176-1.766-3.88-1.324-5.137.9-2.559,2.441-.755,3.138-1.609.944-1.156,1.79-.535,3.372-1.817,1.545-1.253,1.559-2.513,2.594-2.6.932-.075,1.263.919,2.335.778.908-.12,1.106-.891,1.816-.779.65.1.693.782,1.557,1.037.552.163.673-.073,1.3,0A3.733,3.733,0,0,1,188.662,2.6c.63.855.386,1.215,1.039,2.075.563.742,1.811.427,2.28.8,1.533,1.211,2.191,3.443,2.2,5.988a18.266,18.266,0,0,1-.741,4.926c-.393,1.706-2.215,3.911-3.219,4.894-.27.264-1.025,1-1.556.779-.5-.213-.519-1.171-.519-1.3,0-.435.114-.973,1.037-2.335.97-1.431,1.355-1.594,1.3-2.076-.1-.851-1.466-1.631-2.076-1.3h0Z" fill="#2f2e41"/>
      <g id="Group_123" data-name="Group 123">
        <path id="Path_738" data-name="Path 738" d="M154.921,104.56c-.3,2.5.75,4.685,2.342,4.875s3.125-1.684,3.424-4.186a6.307,6.307,0,0,0-.315-2.962l1.133-10.619-4.994-.426-.587,10.513a6.307,6.307,0,0,0-1,2.8h0Z" fill="#a0616a"/>
        <path id="Path_739" data-name="Path 739" d="M169.277,34.04s-2.587.037-4.3,3.383c-.91,1.778-5.781,35.027-5.781,35.027l-4.487,27.237,7.643.039,5.956-25.794,5.01-14.96-4.04-24.931Z" fill="#e6e6e6"/>
      </g>
      <path id="Path_740" data-name="Path 740" d="M190.785,100.563c-.732,2.411-.081,4.744,1.453,5.209s3.372-1.111,4.1-3.523a6.307,6.307,0,0,0,.208-2.971l2.973-10.257-4.843-1.293-2.417,10.248a6.308,6.308,0,0,0-1.478,2.586h0Z" fill="#a0616a"/>
      <path id="Path_741" data-name="Path 741" d="M196.1,32.25s3.753-2.817,6.884,1.562,4.394,40.358,4.394,40.358l-8.753,22.216L192.059,94.2l6.248-27.221L187.349,46.332,196.1,32.25h0Z" fill="#e6e6e6"/>
      <g id="Group_125" data-name="Group 125">
        <circle id="Ellipse_77" data-name="Ellipse 77" cx="33.81" cy="33.81" r="33.81" transform="translate(67.379 110.429)" fill="#8a57dc"/>
        <g id="Group_124" data-name="Group 124">
          <circle id="Ellipse_78" data-name="Ellipse 78" cx="3.104" cy="3.104" r="3.104" transform="translate(98.09 158.756)" fill="#fff"/>
          <path id="Path_742" data-name="Path 742" d="M101.181,123.513c-.285,1.895.226,2.291.229,10.46s1.7,19.121-.218,19.122-2.617-22.6-9.271-24.6c-7.823-2.352,10.184-11.113,9.261-4.979Z" fill="#fff"/>
        </g>
      </g>
      <path id="Path_743" data-name="Path 743" d="M55.811,161.5l-3.055,6.454c3.693-2.648,9.461-4.931,14.051-6.153-4.277-2.066-9.51-5.4-12.636-8.694l1.757,6.82c-20.6-4.2-35.39-20-35.4-38.1l-.744-.256c.007,18.907,14.594,35.644,36.023,39.928Z" fill="#3f3d56"/>
    </g>
  </g>
</svg>
