<svg xmlns="http://www.w3.org/2000/svg" width="32" height="32" viewBox="0 0 32 32">
  <g id="Group_1000001585" data-name="Group 1000001585" transform="translate(-344 -201)">
    <circle id="Ellipse_81" data-name="Ellipse 81" cx="16" cy="16" r="16" transform="translate(344 201)" fill="rgba(138,87,220,0.09)"/>
    <path id="Icon_map-jewelry-store" data-name="Icon map-jewelry-store" d="M14.872,6.612l0-.032a.406.406,0,0,0-.041-.116L12.8,3.2s-.259-.32-.32-.32H3.84l-2.6,3.473-.031.032,0,.015a.57.57,0,0,0-.054.112l-.011.031a.5.5,0,0,0,0,.3l.012.035a.539.539,0,0,0,.06.113L7.5,14.952l.013.018a.544.544,0,0,0,.12.112l.036.023a.647.647,0,0,0,.128.06l.036.012a.617.617,0,0,0,.341,0l.043-.015A.623.623,0,0,0,8.34,15.1l.028-.018a.5.5,0,0,0,.108-.1l6.29-7.966a.559.559,0,0,0,.106-.253l0-.041,0-.033-.008-.077ZM11.5,6.4l.9-1.62L13.29,6.4Zm-.537.96h2.124l-3.54,4.485L10.963,7.36Zm-.525-1.446L9.144,4.16h2.262l-.969,1.754ZM6.3,7.36H9.706L8,12.761Zm.338-.96L8,4.545,9.367,6.4Zm-.963-.631L5.078,4.16H6.856Zm.784,6.076L2.914,7.36H5.038Zm-2.4-7.054L4.646,6.4H2.867L4.053,4.791Z" transform="translate(352 207.96)" fill="#8a57dc"/>
  </g>
</svg>
