<svg xmlns="http://www.w3.org/2000/svg" width="13.333" height="13.333" viewBox="0 0 13.333 13.333">
  <path id="Icon_material-local-offer" data-name="Icon material-local-offer" d="M14.273,7.72l-6-6a1.325,1.325,0,0,0-.94-.387H2.667A1.337,1.337,0,0,0,1.333,2.667V7.333a1.33,1.33,0,0,0,.393.947l6,6a1.325,1.325,0,0,0,.94.387,1.3,1.3,0,0,0,.94-.393l4.667-4.667a1.3,1.3,0,0,0,.393-.94,1.347,1.347,0,0,0-.393-.947ZM3.667,4.667a1,1,0,1,1,1-1A1,1,0,0,1,3.667,4.667Z" transform="translate(-1.333 -1.333)"/>
</svg>
