<svg xmlns="http://www.w3.org/2000/svg" width="13" height="13" viewBox="0 0 13 13">
  <path id="Icon_ionic-ios-paper" data-name="Icon ionic-ios-paper" d="M3.875,2.5V12.563A.439.439,0,0,1,3.438,13h0A.439.439,0,0,1,3,12.563V3.5H2.5a1,1,0,0,0-1,1v9a1,1,0,0,0,1,1H13.534a.966.966,0,0,0,.966-.966V2.5a1,1,0,0,0-1-1l-8.687.063A.9.9,0,0,0,3.875,2.5Zm2.063,1H8.563A.439.439,0,0,1,9,3.938H9a.439.439,0,0,1-.437.438H5.938A.439.439,0,0,1,5.5,3.938h0A.439.439,0,0,1,5.938,3.5Zm0,5h4.625A.439.439,0,0,1,11,8.938h0a.439.439,0,0,1-.437.438H5.938A.439.439,0,0,1,5.5,8.938h0A.439.439,0,0,1,5.938,8.5Zm6.125,3.375H5.938a.439.439,0,0,1-.437-.437h0A.439.439,0,0,1,5.938,11h6.125a.439.439,0,0,1,.438.438h0A.439.439,0,0,1,12.063,11.875Zm0-5H5.938A.439.439,0,0,1,5.5,6.438h0A.439.439,0,0,1,5.938,6h6.125a.439.439,0,0,1,.438.438h0A.439.439,0,0,1,12.063,6.875Z" transform="translate(-1.5 -1.5)"/>
</svg>
