<svg xmlns="http://www.w3.org/2000/svg" width="36" height="36" viewBox="0 0 36 36">
  <g id="Group_1000001584" data-name="Group 1000001584" transform="translate(-196 -42)">
    <path id="Path_779" data-name="Path 779" d="M18,0A18,18,0,1,1,0,18,18,18,0,0,1,18,0Z" transform="translate(196 42)" fill="#8a57dc"/>
    <g id="Icon_ionic-ios-qr-scanner" data-name="Icon ionic-ios-qr-scanner" transform="translate(206 52)">
      <path id="Path_780" data-name="Path 780" d="M5.438,2H3.6A2.1,2.1,0,0,0,1.5,4.1V5.938a.438.438,0,0,0,.875,0V4.069a1.2,1.2,0,0,1,.366-.819,1.193,1.193,0,0,1,.828-.375H5.438a.438.438,0,0,0,0-.875Z" fill="#fff"/>
      <path id="Path_781" data-name="Path 781" d="M12.431,2H10.563a.438.438,0,0,0,0,.875h1.869a1.193,1.193,0,0,1,.828.375,1.2,1.2,0,0,1,.366.819V5.938a.438.438,0,0,0,.875,0V4.069A2.071,2.071,0,0,0,12.431,2Z" fill="#fff"/>
      <path id="Path_782" data-name="Path 782" d="M5.438,13.125H3.569a1.193,1.193,0,0,1-.828-.375,1.2,1.2,0,0,1-.366-.819V10.063a.438.438,0,0,0-.875,0v1.869A2.071,2.071,0,0,0,3.569,14H5.438a.438.438,0,0,0,0-.875Z" fill="#fff"/>
      <path id="Path_783" data-name="Path 783" d="M14.063,9.625a.439.439,0,0,0-.437.438v1.869a1.272,1.272,0,0,1-1.194,1.194H10.563a.438.438,0,0,0,0,.875H12.4a2.1,2.1,0,0,0,2.1-2.1V10.063A.439.439,0,0,0,14.063,9.625Z" fill="#fff"/>
    </g>
  </g>
</svg>
